<?xml version="1.0" encoding="iso-8859-1"?>
<!-- Generator: Adobe Illustrator 19.0.0, SVG Export Plug-In . SVG Version: 6.00 Build 0)  -->
<svg version="1.1" id="Layer_1" xmlns="http://www.w3.org/2000/svg" xmlns:xlink="http://www.w3.org/1999/xlink" x="0px" y="0px"
	 viewBox="0 0 160.399 160.399" style="enable-background:new 0 0 160.399 160.399;" xml:space="preserve">
<g>
	<g>
		<g>
			<path d="M31.999,1.217c-2.521,3.019-15.092,18.519-15.092,27.247c0,9.83,7.999,17.829,17.829,17.829
				c9.83,0,17.829-7.999,17.829-17.829c0-8.728-12.571-24.228-15.092-27.247C36.115-0.406,33.357-0.406,31.999,1.217z
				 M34.736,39.161c-5.899,0-10.697-4.799-10.697-10.697c0-3.827,5.596-12.585,10.697-19.245
				c5.102,6.655,10.697,15.411,10.697,19.245C45.434,34.363,40.635,39.161,34.736,39.161z"/>
			<path d="M31.999,58.27c-2.521,3.019-15.092,18.519-15.092,27.247c0,9.83,7.999,17.829,17.829,17.829
				c9.83,0,17.829-7.999,17.829-17.829c0-8.728-12.571-24.228-15.092-27.247C36.115,56.647,33.357,56.647,31.999,58.27z
				 M34.736,96.214c-5.899,0-10.697-4.799-10.697-10.697c0-3.827,5.596-12.585,10.697-19.245
				c5.102,6.655,10.697,15.411,10.697,19.245C45.434,91.416,40.635,96.214,34.736,96.214z"/>
			<path d="M31.999,115.325c-2.521,3.019-15.092,18.519-15.092,27.245c0,9.83,7.999,17.829,17.829,17.829
				c9.83,0,17.829-7.999,17.829-17.829c0-8.727-12.571-24.226-15.092-27.245C36.115,113.702,33.357,113.702,31.999,115.325z
				 M34.736,153.267c-5.899,0-10.697-4.799-10.697-10.697c0-3.827,5.596-12.585,10.697-19.246
				c5.102,6.658,10.697,15.412,10.697,19.246C45.434,148.469,40.635,153.267,34.736,153.267z"/>
			<path d="M76.572,1.217C74.051,4.236,61.48,19.736,61.48,28.464c0,9.83,7.999,17.829,17.829,17.829
				c9.83,0,17.829-7.999,17.829-17.829c0-8.728-12.571-24.228-15.092-27.247C80.688-0.406,77.93-0.406,76.572,1.217z M79.309,39.161
				c-5.899,0-10.697-4.799-10.697-10.697c0-3.827,5.596-12.585,10.697-19.245c5.102,6.655,10.697,15.411,10.697,19.245
				C90.006,34.363,85.208,39.161,79.309,39.161z"/>
			<path d="M76.572,58.27C74.051,61.289,61.48,76.789,61.48,85.517c0,9.83,7.999,17.829,17.829,17.829
				c9.83,0,17.829-7.999,17.829-17.829c0-8.728-12.571-24.228-15.092-27.247C80.688,56.647,77.93,56.647,76.572,58.27z
				 M79.309,96.214c-5.899,0-10.697-4.799-10.697-10.697c0-3.827,5.596-12.585,10.697-19.245
				c5.102,6.655,10.697,15.411,10.697,19.245C90.006,91.416,85.208,96.214,79.309,96.214z"/>
			<path d="M76.572,115.325c-2.521,3.019-15.092,18.519-15.092,27.245c0,9.83,7.999,17.829,17.829,17.829
				c9.83,0,17.829-7.999,17.829-17.829c0-8.727-12.571-24.226-15.092-27.245C80.688,113.702,77.93,113.702,76.572,115.325z
				 M79.309,153.267c-5.899,0-10.697-4.799-10.697-10.697c0-3.827,5.596-12.585,10.697-19.246
				c5.102,6.658,10.697,15.412,10.697,19.246C90.006,148.469,85.208,153.267,79.309,153.267z"/>
			<path d="M125.664,46.293c9.83,0,17.829-7.999,17.829-17.829c0-8.728-12.571-24.228-15.092-27.247
				c-1.358-1.623-4.116-1.623-5.474,0c-2.521,3.019-15.092,18.519-15.092,27.247C107.835,38.294,115.834,46.293,125.664,46.293z
				 M125.664,9.219c5.102,6.655,10.697,15.411,10.697,19.245c0,5.899-4.799,10.697-10.697,10.697
				c-5.898,0-10.697-4.799-10.697-10.697C114.967,24.637,120.563,15.879,125.664,9.219z"/>
			<path d="M122.927,58.27c-2.521,3.019-15.092,18.519-15.092,27.247c0,9.83,7.999,17.829,17.829,17.829s17.829-7.999,17.829-17.829
				c0-8.728-12.571-24.228-15.092-27.247C127.043,56.647,124.286,56.647,122.927,58.27z M125.664,96.214
				c-5.899,0-10.697-4.799-10.697-10.697c0-3.827,5.596-12.585,10.697-19.245c5.102,6.655,10.697,15.411,10.697,19.245
				C136.362,91.416,131.563,96.214,125.664,96.214z"/>
			<path d="M122.927,115.325c-2.521,3.019-15.092,18.519-15.092,27.245c0,9.83,7.999,17.829,17.829,17.829
				s17.829-7.999,17.829-17.829c0-8.727-12.571-24.226-15.092-27.245C127.043,113.702,124.286,113.702,122.927,115.325z
				 M125.664,153.267c-5.899,0-10.697-4.799-10.697-10.697c0-3.827,5.596-12.585,10.697-19.246
				c5.102,6.658,10.697,15.412,10.697,19.246C136.362,148.469,131.563,153.267,125.664,153.267z"/>
		</g>
	</g>
</g>
<g>
</g>
<g>
</g>
<g>
</g>
<g>
</g>
<g>
</g>
<g>
</g>
<g>
</g>
<g>
</g>
<g>
</g>
<g>
</g>
<g>
</g>
<g>
</g>
<g>
</g>
<g>
</g>
<g>
</g>
</svg>
