<?xml version="1.0" encoding="iso-8859-1"?>
<!-- Generator: Adobe Illustrator 19.0.0, SVG Export Plug-In . SVG Version: 6.00 Build 0)  -->
<svg version="1.1" id="Layer_1" xmlns="http://www.w3.org/2000/svg" xmlns:xlink="http://www.w3.org/1999/xlink" x="0px" y="0px"
	 viewBox="0 0 196.119 196.119" style="enable-background:new 0 0 196.119 196.119;" xml:space="preserve">
<g>
	<g>
		<path d="M114.105,110.441V53.487v-3.548V16.05C114.105,7.2,106.907,0,98.058,0c-8.848,0-16.046,7.199-16.046,16.05v33.889v3.548
			v56.954c-17.168,6.56-28.526,22.866-28.526,41.36c0,24.436,19.995,44.318,44.573,44.318s44.573-19.882,44.573-44.318
			C142.631,133.307,131.271,117.001,114.105,110.441z M89.144,28.526h7.132c1.969,0,3.566-1.597,3.566-3.566
			s-1.597-3.566-3.566-3.566h-7.132V16.05c0-4.917,4-8.918,8.915-8.918s8.915,4.001,8.915,8.918v30.306h-17.83V28.526z
			 M98.058,188.988c-20.645,0-37.441-16.682-37.441-37.187c0-16.252,10.464-30.491,26.038-35.432
			c1.482-0.47,2.488-1.844,2.488-3.399v-9.562h7.132c1.969,0,3.566-1.597,3.566-3.566s-1.597-3.566-3.566-3.566h-7.132V78.448h7.132
			c1.969,0,3.566-1.597,3.566-3.566c0-1.969-1.597-3.566-3.566-3.566h-7.132V53.505h17.829v59.466c0,1.555,1.006,2.929,2.488,3.399
			c15.574,4.941,26.038,19.18,26.038,35.432C135.5,172.306,118.702,188.988,98.058,188.988z"/>
	</g>
</g>
<g>
</g>
<g>
</g>
<g>
</g>
<g>
</g>
<g>
</g>
<g>
</g>
<g>
</g>
<g>
</g>
<g>
</g>
<g>
</g>
<g>
</g>
<g>
</g>
<g>
</g>
<g>
</g>
<g>
</g>
</svg>
